# xmcd
#
# Track frame offsets:
#	150
#	17240
#	38107
#	53452
#	71375
#	89004
#	106280
#	122225
#	140380
#	157467
#	178295
#	193585
#	211432
#	229022
#	246272
#	262217
#
# Disc length: 3738 seconds
#
# Revision: 1
# Processed by: cddbd v1.5.1PL2 Copyright (c) Steve Scherf et al.
# Submitted via: audiograbber 1.83.01
#
DISCID=f10e9810
DTITLE=Various Artist - SC3259
DYEAR=1900
DGENRE=Karaoke
TTITLE0=Carolyn Dawn Johnson - Complicated
TTITLE1=Mark Wills - Loving Every Minute
TTITLE2=Andy Griggs - How Cool Is That
TTITLE3=Blake Shelton - Austin
TTITLE4=Jo Dee Messina - Downtime
TTITLE5=Diamond Rio - Sweet Summer
TTITLE6=LeAnn Rimes - But I Do Love You
TTITLE7=Trick Pony - On A Night Like This
TTITLE8=Carolyn Dawn Johsnon - Complicated (Vocals)
TTITLE9=Mark Wills - Loving Every Minute (Vocals)
TTITLE10=Andy Griggs - How Cool Is That (Vocals)
TTITLE11=Blake Shelton - Austin (Vocals)
TTITLE12=Jo Dee Messina - Downtime (Vocals)
TTITLE13=Diamond Rio - Sweet Summer (Vocals)
TTITLE14=LeAnn Rimes - But I Do Love You (Vocals)
TTITLE15=Trick Pony - On A Night Like This (Vocals)
EXTD=
EXTT0=
EXTT1=
EXTT2=
EXTT3=
EXTT4=
EXTT5=
EXTT6=
EXTT7=
EXTT8=
EXTT9=
EXTT10=
EXTT11=
EXTT12=
EXTT13=
EXTT14=
EXTT15=
PLAYORDER=
